<svg width="58" height="58" viewBox="0 0 58 58" fill="none" xmlns="http://www.w3.org/2000/svg">
<circle cx="29" cy="29" r="29" fill="#E5A434"/>
<path d="M20.174 24.376V23.718H24.346V24.376L23.184 24.502C23.1747 25.0807 23.1653 25.6687 23.156 26.266C23.156 26.854 23.156 27.4513 23.156 28.058V28.66C23.156 29.248 23.156 29.8407 23.156 30.438C23.1653 31.026 23.1747 31.6187 23.184 32.216L24.346 32.342V33H20.174V32.342L21.308 32.216C21.3267 31.628 21.336 31.0307 21.336 30.424C21.336 29.8173 21.336 29.2107 21.336 28.604H17.542C17.542 29.276 17.542 29.906 17.542 30.494C17.5513 31.082 17.5607 31.656 17.57 32.216L18.718 32.342V33H14.546V32.342L15.708 32.216C15.7267 31.6373 15.736 31.0493 15.736 30.452C15.736 29.8547 15.736 29.2573 15.736 28.66V28.058C15.736 27.47 15.736 26.882 15.736 26.294C15.736 25.6967 15.7267 25.0993 15.708 24.502L14.546 24.376V23.718H18.718V24.376L17.57 24.502C17.5607 25.0807 17.5513 25.6593 17.542 26.238C17.542 26.8167 17.542 27.3627 17.542 27.876H21.336C21.336 27.2973 21.336 26.728 21.336 26.168C21.336 25.608 21.3267 25.0527 21.308 24.502L20.174 24.376ZM25.4425 24.376V23.718H29.6565V24.376L28.4805 24.502C28.4712 25.0807 28.4618 25.6687 28.4525 26.266C28.4525 26.854 28.4525 27.4513 28.4525 28.058V28.66C28.4525 29.248 28.4525 29.8407 28.4525 30.438C28.4618 31.026 28.4712 31.6187 28.4805 32.216L29.6565 32.342V33H25.4425V32.342L26.6185 32.216C26.6372 31.6373 26.6465 31.0493 26.6465 30.452C26.6465 29.8547 26.6465 29.2573 26.6465 28.66V28.058C26.6465 27.47 26.6465 26.882 26.6465 26.294C26.6465 25.6967 26.6372 25.0993 26.6185 24.502L25.4425 24.376ZM30.4812 26.266L30.5652 23.718H38.5032L38.5732 26.266H37.6072L37.3132 24.46H35.4652C35.4558 25.048 35.4465 25.6453 35.4372 26.252C35.4372 26.8493 35.4372 27.4513 35.4372 28.058V28.66C35.4372 29.248 35.4372 29.8407 35.4372 30.438C35.4465 31.026 35.4558 31.614 35.4652 32.202L36.7812 32.342V33H32.2732V32.342L33.5892 32.202C33.6078 31.6233 33.6172 31.04 33.6172 30.452C33.6172 29.8547 33.6172 29.2573 33.6172 28.66V28.058C33.6172 27.4607 33.6172 26.8633 33.6172 26.266C33.6172 25.6593 33.6078 25.0573 33.5892 24.46H31.7552L31.4612 26.266H30.4812ZM41.0675 33.196C40.7688 33.196 40.5121 33.0887 40.2975 32.874C40.0828 32.6593 39.9755 32.4027 39.9755 32.104C39.9755 31.8053 40.0828 31.5487 40.2975 31.334C40.5121 31.1193 40.7688 31.012 41.0675 31.012C41.3755 31.012 41.6368 31.1193 41.8515 31.334C42.0661 31.5487 42.1735 31.8053 42.1735 32.104C42.1735 32.4027 42.0661 32.6593 41.8515 32.874C41.6368 33.0887 41.3755 33.196 41.0675 33.196ZM41.0675 23.536C41.3941 23.536 41.6508 23.6247 41.8375 23.802C42.0335 23.9793 42.1315 24.2547 42.1315 24.628C42.1315 24.88 42.0941 25.2953 42.0195 25.874C41.9448 26.4527 41.8235 27.204 41.6555 28.128L41.3895 29.766H40.7595L40.4935 28.128C40.3255 27.1947 40.2041 26.4433 40.1295 25.874C40.0548 25.2953 40.0175 24.88 40.0175 24.628C40.0175 24.2547 40.1108 23.9793 40.2975 23.802C40.4935 23.6247 40.7501 23.536 41.0675 23.536Z" fill="white"/>
</svg>
