<svg width="58" height="58" viewBox="0 0 58 58" fill="none" xmlns="http://www.w3.org/2000/svg">
<circle cx="29" cy="29" r="29" fill="#D33B3B"/>
<path d="M18.174 24.376V23.718H22.346V24.376L21.184 24.502C21.1747 25.0807 21.1653 25.6687 21.156 26.266C21.156 26.854 21.156 27.4513 21.156 28.058V28.66C21.156 29.248 21.156 29.8407 21.156 30.438C21.1653 31.026 21.1747 31.6187 21.184 32.216L22.346 32.342V33H18.174V32.342L19.308 32.216C19.3267 31.628 19.336 31.0307 19.336 30.424C19.336 29.8173 19.336 29.2107 19.336 28.604H15.542C15.542 29.276 15.542 29.906 15.542 30.494C15.5513 31.082 15.5607 31.656 15.57 32.216L16.718 32.342V33H12.546V32.342L13.708 32.216C13.7267 31.6373 13.736 31.0493 13.736 30.452C13.736 29.8547 13.736 29.2573 13.736 28.66V28.058C13.736 27.47 13.736 26.882 13.736 26.294C13.736 25.6967 13.7267 25.0993 13.708 24.502L12.546 24.376V23.718H16.718V24.376L15.57 24.502C15.5607 25.0807 15.5513 25.6593 15.542 26.238C15.542 26.8167 15.542 27.3627 15.542 27.876H19.336C19.336 27.2973 19.336 26.728 19.336 26.168C19.336 25.608 19.3267 25.0527 19.308 24.502L18.174 24.376ZM27.5787 33.238C27.0187 33.238 26.4774 33.1353 25.9547 32.93C25.4321 32.7247 24.9607 32.4167 24.5407 32.006C24.1301 31.5953 23.8034 31.0867 23.5607 30.48C23.3274 29.8733 23.2107 29.164 23.2107 28.352C23.2107 27.568 23.3321 26.8727 23.5747 26.266C23.8174 25.6593 24.1441 25.1507 24.5547 24.74C24.9654 24.32 25.4321 24.0073 25.9547 23.802C26.4774 23.5873 27.0187 23.48 27.5787 23.48C28.1387 23.48 28.6754 23.5827 29.1887 23.788C29.7114 23.9933 30.1781 24.3013 30.5887 24.712C30.9994 25.1133 31.3261 25.622 31.5687 26.238C31.8114 26.8447 31.9327 27.5493 31.9327 28.352C31.9327 29.136 31.8114 29.8313 31.5687 30.438C31.3354 31.0447 31.0087 31.558 30.5887 31.978C30.1781 32.3887 29.7114 32.7013 29.1887 32.916C28.6754 33.1307 28.1387 33.238 27.5787 33.238ZM27.5787 32.482C28.1387 32.482 28.5914 32.2907 28.9367 31.908C29.2821 31.5253 29.5341 31.0213 29.6927 30.396C29.8607 29.7707 29.9447 29.0893 29.9447 28.352C29.9447 27.6147 29.8607 26.9333 29.6927 26.308C29.5341 25.6827 29.2821 25.1787 28.9367 24.796C28.5914 24.4133 28.1387 24.222 27.5787 24.222C27.0187 24.222 26.5614 24.4133 26.2067 24.796C25.8521 25.1787 25.5907 25.6827 25.4227 26.308C25.2641 26.9333 25.1847 27.6147 25.1847 28.352C25.1847 29.0893 25.2641 29.7707 25.4227 30.396C25.5907 31.0213 25.8521 31.5253 26.2067 31.908C26.5614 32.2907 27.0187 32.482 27.5787 32.482ZM32.5827 26.266L32.6667 23.718H40.6047L40.6747 26.266H39.7087L39.4147 24.46H37.5667C37.5574 25.048 37.5481 25.6453 37.5387 26.252C37.5387 26.8493 37.5387 27.4513 37.5387 28.058V28.66C37.5387 29.248 37.5387 29.8407 37.5387 30.438C37.5481 31.026 37.5574 31.614 37.5667 32.202L38.8827 32.342V33H34.3747V32.342L35.6907 32.202C35.7094 31.6233 35.7187 31.04 35.7187 30.452C35.7187 29.8547 35.7187 29.2573 35.7187 28.66V28.058C35.7187 27.4607 35.7187 26.8633 35.7187 26.266C35.7187 25.6593 35.7094 25.0573 35.6907 24.46H33.8567L33.5627 26.266H32.5827ZM43.169 33.196C42.8704 33.196 42.6137 33.0887 42.399 32.874C42.1844 32.6593 42.077 32.4027 42.077 32.104C42.077 31.8053 42.1844 31.5487 42.399 31.334C42.6137 31.1193 42.8704 31.012 43.169 31.012C43.477 31.012 43.7384 31.1193 43.953 31.334C44.1677 31.5487 44.275 31.8053 44.275 32.104C44.275 32.4027 44.1677 32.6593 43.953 32.874C43.7384 33.0887 43.477 33.196 43.169 33.196ZM43.169 23.536C43.4957 23.536 43.7524 23.6247 43.939 23.802C44.135 23.9793 44.233 24.2547 44.233 24.628C44.233 24.88 44.1957 25.2953 44.121 25.874C44.0464 26.4527 43.925 27.204 43.757 28.128L43.491 29.766H42.861L42.595 28.128C42.427 27.1947 42.3057 26.4433 42.231 25.874C42.1564 25.2953 42.119 24.88 42.119 24.628C42.119 24.2547 42.2124 23.9793 42.399 23.802C42.595 23.6247 42.8517 23.536 43.169 23.536Z" fill="white"/>
</svg>
