<svg width="154" height="36" viewBox="0 0 154 36" fill="none" xmlns="http://www.w3.org/2000/svg">
<path d="M15.45 6.9L10.4 21.8H20.45L15.45 6.9ZM0.25 35V32.95L4.45 32.3L15.1 1.3H18.25L28.9 32.5L32.65 32.95V35H19.05V32.95L23.95 32.35L21.2 24.15H9.6L6.8 32.3L11.7 32.95V35H0.25ZM50.45 35.75C47.1167 35.75 44.1833 35 41.65 33.5C39.1167 31.9667 37.1333 29.8833 35.7 27.25C34.3 24.6167 33.6 21.6167 33.6 18.25C33.6 14.8833 34.3167 11.9 35.75 9.3C37.1833 6.66666 39.1667 4.6 41.7 3.1C44.2667 1.56667 47.25 0.799999 50.65 0.799999C52.7167 0.799999 54.55 0.999999 56.15 1.4C57.7833 1.76667 59.3 2.35 60.7 3.15L60.9 10.45H57.8L56.8 4.75C55.0667 3.78333 53.1667 3.3 51.1 3.3C48.8 3.3 46.7333 3.88333 44.9 5.05C43.1 6.21667 41.6667 7.91667 40.6 10.15C39.5667 12.35 39.05 15.05 39.05 18.25C39.05 23.0167 40.15 26.7 42.35 29.3C44.55 31.9 47.5667 33.2 51.4 33.2C53.3 33.2 55.0833 32.8667 56.75 32.2V30.6C56.75 29.1 56.7333 27.6 56.7 26.1C56.7 24.5667 56.6833 23.05 56.65 21.55L51.45 21.1V19.1H64.6V21.1L61.55 21.4C61.5167 22.9 61.4833 24.4167 61.45 25.95C61.45 27.4833 61.45 29.0333 61.45 30.6V32.8C59.7167 33.7 57.9667 34.4167 56.2 34.95C54.4333 35.4833 52.5167 35.75 50.45 35.75ZM80.2449 6.9L75.1949 21.8H85.2449L80.2449 6.9ZM65.0449 35V32.95L69.2449 32.3L79.8949 1.3H83.0449L93.6949 32.5L97.4449 32.95V35H83.8449V32.95L88.7449 32.35L85.9949 24.15H74.3949L71.5949 32.3L76.4949 32.95V35H65.0449ZM95.9707 10.45L96.3707 1.55H123.771L124.171 10.45H121.271L120.171 4.05H112.521C112.487 6.18333 112.454 8.33333 112.421 10.5C112.421 12.6667 112.421 14.85 112.421 17.05V19.5C112.421 21.6333 112.421 23.7833 112.421 25.95C112.454 28.0833 112.487 30.2333 112.521 32.4L117.621 32.95V35H102.521V32.95L107.621 32.4C107.687 30.2667 107.721 28.1333 107.721 26C107.721 23.8333 107.721 21.6667 107.721 19.5V17.05C107.721 14.8833 107.721 12.7167 107.721 10.55C107.721 8.38333 107.687 6.21667 107.621 4.05H99.9707L98.8707 10.45H95.9707ZM127.346 3.6V1.55H152.246L152.596 10.4H149.746L148.646 4.05H136.896C136.863 6.18333 136.83 8.31667 136.796 10.45C136.796 12.5833 136.796 14.6833 136.796 16.75H144.146L144.846 12H147.146V23.8H144.846L144.196 19.1H136.796C136.796 21.6 136.796 23.95 136.796 26.15C136.83 28.3167 136.863 30.4333 136.896 32.5H149.646L150.746 26.1H153.596L153.246 35H127.346V32.95L131.946 32.4C132.013 30.3 132.046 28.1667 132.046 26C132.046 23.8333 132.046 21.6667 132.046 19.5V17.05C132.046 14.8833 132.046 12.7333 132.046 10.6C132.046 8.43333 132.013 6.28333 131.946 4.15L127.346 3.6Z" fill="white"/>
</svg>
