<svg width="58" height="58" viewBox="0 0 58 58" fill="none" xmlns="http://www.w3.org/2000/svg">
<circle cx="29" cy="29" r="29" fill="#B3E151"/>
<path d="M17.23 24.376V23.718H20.758V24.376L19.568 24.558V33.056H18.742L13.464 25.804V32.146L15.004 32.342V33H11.476V32.342L12.666 32.174V24.698L12.498 24.474L11.518 24.376V23.718H14.164L18.77 30.046V24.558L17.23 24.376ZM21.6495 24.376V23.718H28.7055L28.8035 26.168H27.8235L27.5295 24.46H24.6875C24.6782 25.048 24.6688 25.636 24.6595 26.224C24.6595 26.8027 24.6595 27.3487 24.6595 27.862H26.4655L26.6475 26.644H27.3755V29.808H26.6475L26.4795 28.604H24.6595C24.6595 29.276 24.6595 29.9107 24.6595 30.508C24.6688 31.096 24.6782 31.6793 24.6875 32.258H27.8095L28.1035 30.55H29.0835L28.9855 33H21.6495V32.342L22.8255 32.216C22.8442 31.6373 22.8535 31.0493 22.8535 30.452C22.8535 29.8547 22.8535 29.2573 22.8535 28.66V28.058C22.8535 27.47 22.8535 26.882 22.8535 26.294C22.8535 25.6967 22.8442 25.0993 22.8255 24.502L21.6495 24.376ZM39.764 24.376V23.718H42.844V24.376L41.71 24.558L39.288 33.056H38.322L36.11 26.224L33.996 33.056H33.03L30.51 24.488L29.488 24.376V23.718H33.562V24.376L32.4 24.516L33.982 30.578L35.9 24.516L34.682 24.376V23.718H38.672V24.376L37.356 24.53L39.218 30.662L40.912 24.544L39.764 24.376ZM45.1358 33.196C44.8372 33.196 44.5805 33.0887 44.3658 32.874C44.1512 32.6593 44.0438 32.4027 44.0438 32.104C44.0438 31.8053 44.1512 31.5487 44.3658 31.334C44.5805 31.1193 44.8372 31.012 45.1358 31.012C45.4438 31.012 45.7052 31.1193 45.9198 31.334C46.1345 31.5487 46.2418 31.8053 46.2418 32.104C46.2418 32.4027 46.1345 32.6593 45.9198 32.874C45.7052 33.0887 45.4438 33.196 45.1358 33.196ZM45.1358 23.536C45.4625 23.536 45.7192 23.6247 45.9058 23.802C46.1018 23.9793 46.1998 24.2547 46.1998 24.628C46.1998 24.88 46.1625 25.2953 46.0878 25.874C46.0132 26.4527 45.8918 27.204 45.7238 28.128L45.4578 29.766H44.8278L44.5618 28.128C44.3938 27.1947 44.2725 26.4433 44.1978 25.874C44.1232 25.2953 44.0858 24.88 44.0858 24.628C44.0858 24.2547 44.1792 23.9793 44.3658 23.802C44.5618 23.6247 44.8185 23.536 45.1358 23.536Z" fill="white"/>
</svg>
